<svg xmlns="http://www.w3.org/2000/svg" xmlns:xlink="http://www.w3.org/1999/xlink" width="190.073" height="176.349" viewBox="0 0 190.073 176.349"><defs><clipPath id="a"><rect width="190.073" height="176.349" transform="translate(80.013 338.882)" fill="none"/></clipPath></defs><g transform="translate(-80.013 -338.882)" clip-path="url(#a)"><g opacity="0.35"><path d="M228.878,389.287c.925-3.848,1.2-7.847,2.011-11.729.54-2.594,1.5-5.1,2.273-7.647l.914.371c-1.248,8.556-2.5,17.111-3.722,25.519,9.5-5.3,16.717-20.792,14.874-32.3-9.493.133-20.6,6.421-26.925,15.244-5.1,7.112-5.117,10.918-.045,18.122C224.4,398.039,227.563,394.764,228.878,389.287Z" fill="#96c73d"/><path d="M218.258,396.87c-.034-.007-.066-.009-.1-.016l.013.01c-.141.259-.267.521-.4.781.2-.207.4-.415.591-.628C218.323,396.967,218.293,396.92,218.258,396.87Z" fill="#96c73d"/><path d="M227.351,426.014c-1.1,1.374-1.188,4.453-.452,6.214,2.167,5.183,7.138,4.971,11.753,5.015,5.317.05,10.635.011,17.331.011-4.1-6.99-8.186-12.625-15.668-14.773C235.271,421.032,230.62,421.915,227.351,426.014Z" fill="#96c73d"/><path d="M213.118,507.726A3.575,3.575,0,0,0,214.479,505c-.014-2.747-2.3-3.577-4.378-4.456-2.394-1.012-4.8-1.985-7.831-3.233.552,3.924,1.348,7.231,4.33,9.6C208.61,508.5,210.877,508.97,213.118,507.726Z" fill="#96c73d"/><path d="M243.2,517.478c-4.959-10.5-5.985-21.433-4.655-32.673.805-6.794,3.648-12.712,9.7-16.861.579,1.3,1.181,2.493,1.8,3.64a33.9,33.9,0,0,1,34.1-6.418s-24.852-1.569-32.49,9.188c5.5,8.606,12.732,12.253,24.18,12.046a98.214,98.214,0,0,0,20.586-3.106c10.9-2.579,21.308-2.479,31.291,3.148a9.654,9.654,0,0,0,2.682.377c-7.2-12.491-14.952-23.5-26.009-31.8-14.18-10.645-35.541-13.621-46.852-3.452-9.216,8.286-19.277,17.177-23.428,29.856-1.565,4.78-1.961,9.944-3.007,15.558a121.725,121.725,0,0,1-18.2-35.171c-3.631-11.174-4.2-21.388,6.048-29.867l-1.254-.9-9.085,7.542c.5-14.621,2.5-28.293,9.152-40.942-1.565,1.6-3.422,3.068-4.264,4.984-2.7,6.152-4.871,12.536-7.419,19.277-.247-.423-.586-.912-.835-1.442-1.655-3.526-3.008-7.229-4.991-10.557-4.465-7.491-17.012-7.757-25.052-.124,9.54.568,14.473,13.542,26.4,7.24,1.122,3.283,2.7,6.148,3,9.14.568,5.724-.071,11.581.654,17.274,1.3,10.239,3.241,20.4,4.885,30.417-2.991-1.809-6.346-3.587-9.391-5.792a7.849,7.849,0,0,1-3.155-4.365c-1.565-9.521-7.128-15.856-15.428-20.008-12.946-6.476-26.237-7.611-39.908-2.219-12.289,4.846-22.4,12.874-32.039,21.611a41.165,41.165,0,0,0-3.223,4.04c15.46-4.395,27.588.412,39.44,7.415a68.482,68.482,0,0,0,16.4,7.062c6.874,1.9,13.33,2.215,19.071.378-1.244-2.994-6.949-15.106-22.193-27.382,0,0,19.987,8.673,26.707,25.379a27.853,27.853,0,0,0,9.651-9.642c20.039,10.485,28.473,29.939,38.883,47.941a37.813,37.813,0,0,0-12.54-5.679,12.017,12.017,0,0,1-1.929-9.719s-4.281,3.053-2.34,9.008l.005,0a34.05,34.05,0,0,0-9.846.481,36.872,36.872,0,0,0,7.96,1.869c13.759,2.15,21.616,9.623,23.664,23.124a46.408,46.408,0,0,1-6.515,32.094h11.57C252.3,551.893,251.244,534.5,243.2,517.478Z" fill="#96c73d"/></g></g></svg>