<svg xmlns="http://www.w3.org/2000/svg" xmlns:xlink="http://www.w3.org/1999/xlink" width="98.595" height="133.951" viewBox="0 0 98.595 133.951"><defs><clipPath id="a"><rect width="98.595" height="133.951" transform="translate(25.419 80.049)" fill="none"/></clipPath></defs><g transform="translate(-25.419 -80.049)" clip-path="url(#a)"><g opacity="0.67"><path d="M38.973,169.278c-1.681,1.5-2.46,5.372-1.909,7.756,1.623,7.016,7.951,7.818,13.773,8.867,6.709,1.208,13.437,2.3,21.9,3.746-3.678-9.716-7.626-17.717-16.619-22.043C50.054,164.688,43.987,164.8,38.973,169.278Z" fill="#96c73d" opacity="0.5"/><path d="M30.042,153.483c9.443,6.556,19.475,7.048,29.91,3.388,16.273-5.707,28.264-16.137,34.985-32.306,6.042-14.532,7.554-29.837,8.073-45.329.047-1.413-.349-2.842-.785-6.107C93.168,90,79,96.391,63.182,100.727A81.516,81.516,0,0,0,43.545,108.9c-7.32,4.309-12.946,9.568-16.135,16,3.593,1.417,18.687,6.578,41.828,3.713,0,0-23.992,9.91-43.857,1.81a31.157,31.157,0,0,0-.617,11.443c.8,5.988,2.879,9.411,4.941,11.451C29.811,153.382,29.945,153.416,30.042,153.483Z" fill="#96c73d" opacity="0.5"/></g></g></svg>