<svg xmlns="http://www.w3.org/2000/svg" xmlns:xlink="http://www.w3.org/1999/xlink" width="64.639" height="102.712" viewBox="0 0 64.639 102.712"><defs><clipPath id="a"><rect width="64.639" height="102.712" transform="translate(666.476 515.231) rotate(-180)" fill="none"/></clipPath></defs><g transform="translate(-601.837 -412.519)" clip-path="url(#a)"><path d="M649.909,509.337c.426,1.727-.794,4.6-2.217,5.9-4.189,3.848-8.67,1.546-12.932-.369-4.91-2.206-9.783-4.495-15.94-7.332,6.732-4.689,12.875-8.141,20.666-6.946C644.737,501.4,648.639,504.182,649.909,509.337Z" fill="#96c73d" opacity="0.5"/><path d="M662.778,503.03c-9.079.058-15.836-4.1-21-11.14-8.056-10.981-11.214-23.128-8.379-36.663,2.549-12.165,8.394-22.813,14.97-33.139a38.775,38.775,0,0,1,3.237-3.629c-1.628,15.035,4.752,25.522,13.123,35.406a64.4,64.4,0,0,1,9.148,14.09c2.846,6.075,4.165,12.012,3.371,17.628-2.974-.68-15.112-4.053-28.911-16.247,0,0,11.21,17.164,27.769,20.752a24.628,24.628,0,0,1-4.705,7.731c-3.193,3.546-6.076,4.848-8.33,5.256C662.973,503.068,662.871,503.03,662.778,503.03Z" fill="#96c73d" opacity="0.5"/></g></svg>