<?xml version="1.0" encoding="UTF-8" standalone="no"?>
<svg
 xmlns:dc="http://purl.org/dc/elements/1.1/"
 xmlns:cc="http://creativecommons.org/ns#"
 xmlns:rdf="http://www.w3.org/1999/02/22-rdf-syntax-ns#"
 xmlns:svg="http://www.w3.org/2000/svg"
 xmlns="http://www.w3.org/2000/svg"
 height="250"
 width="250"
 version="1.1"
 viewBox="0 0 249.99999 249.99999"
 data-name="Layer 1"
 id="Layer_1">
<metadata
 id="metadata986">
<rdf:RDF>
<cc:Work
 rdf:about="">
<dc:format>image/svg+xml</dc:format>
<dc:type
 rdf:resource="http://purl.org/dc/dcmitype/StillImage" />
<dc:title>Planterest Logo</dc:title>
</cc:Work>
</rdf:RDF>
</metadata>
<defs
 id="defs943">
<style
 id="style941">.cls-1{fill:#97c83e;}.cls-2{fill:#333;stroke:#333;stroke-miterlimit:10;}</style>
</defs>
<title
 id="title945">Planterest Logo</title>
<g
 transform="translate(-62.098365,-51.305101)"
 id="g1008">
<polygon
 class="cls-1"
 points="237.99,171.1 237.99,159.27 235.26,162.16 236.62,167.91 "
 id="polygon947"
 style="fill:#97c83e" />
<path
 class="cls-1"
 d="m 193.42,93.87 c 0.5,-2.06 0.65,-4.19 1.08,-6.26 0.29,-1.39 0.8,-2.73 1.21,-4.08 l 0.49,0.19 c -0.67,4.57 -1.33,9.14 -2,13.62 5.07,-2.83 8.92,-11.09 7.94,-17.23 -5.07,0.07 -11,3.42 -14.37,8.13 -2.72,3.8 -2.73,5.83 0,9.67 3.23,0.63 4.95,-1.12 5.65,-4.04 z"
 id="path949"
 style="fill:#97c83e" />
<path
 class="cls-1"
 d="m 187.76,97.91 v 0 c -0.08,0.14 -0.14,0.28 -0.22,0.42 0.11,-0.11 0.22,-0.22 0.32,-0.34 a 0.22,0.22 0 0 1 -0.1,-0.08 z"
 id="path951"
 style="fill:#97c83e" />
<path
 class="cls-1"
 d="m 234.64,89.94 c 0,5.94 0.06,11.55 0,17.16 0,2.26 0.71,3.4 3.14,3.05 V 86.93 c -9.31,0 -18.32,-0.05 -27.33,0.08 -0.79,0 -1.55,1.25 -2.33,1.91 0.2,0.34 0.39,0.68 0.58,1 z"
 id="path953"
 style="fill:#97c83e" />
<path
 class="cls-1"
 d="M 161.42,107.6 V 90.16 c 1.44,-0.07 2.57,-0.16 3.71,-0.16 4.77,0 9.55,-0.06 14.33,0 1.88,0 3.12,-0.48 3,-3.15 -7.59,0 -15,-0.06 -22.43,0.09 -0.63,0 -1.76,1.39 -1.78,2.16 -0.15,5.41 -0.05,10.83 -0.1,16.24 0,2.2 1.07,2.66 3.27,2.26 z"
 id="path955"
 style="fill:#97c83e" />
<path
 class="cls-1"
 d="m 192.61,113.47 a 3.85,3.85 0 0 0 -0.24,3.31 c 1.15,2.77 3.81,2.66 6.27,2.68 2.84,0 5.68,0 9.25,0 -2.19,-3.73 -4.37,-6.74 -8.36,-7.89 -2.69,-0.76 -5.18,-0.29 -6.92,1.9 z"
 id="path957"
 style="fill:#97c83e" />
<path
 class="cls-1"
 d="m 185,157.08 a 1.94,1.94 0 0 0 0.73,-1.46 c 0,-1.46 -1.23,-1.91 -2.34,-2.37 -1.27,-0.54 -2.56,-1.06 -4.18,-1.73 0.3,2.09 0.72,3.86 2.31,5.12 a 3,3 0 0 0 3.48,0.44 z"
 id="path959"
 style="fill:#97c83e" />
<path
 class="cls-1"
 d="m 205.58,139.27 c 2.94,4.59 6.8,6.54 12.91,6.43 a 52.63,52.63 0 0 0 11,-1.66 c 5.82,-1.38 11.38,-1.32 16.7,1.68 a 5.12,5.12 0 0 0 1.44,0.2 c -3.85,-6.67 -8,-12.54 -13.89,-17 -7.56,-5.68 -19,-7.27 -25,-1.84 -4.92,4.42 -10.29,9.17 -12.5,15.93 a 66.24,66.24 0 0 0 -1.61,8.31 65.08,65.08 0 0 1 -9.71,-18.78 c -1.94,-6 -2.24,-11.41 3.23,-15.94 l -0.67,-0.48 -4.85,4 c 0.27,-7.8 1.34,-15.1 4.88,-21.85 a 10.27,10.27 0 0 0 -2.27,2.66 c -1.44,3.28 -2.6,6.69 -4,10.29 -0.13,-0.23 -0.31,-0.49 -0.45,-0.77 a 61.84,61.84 0 0 0 -2.66,-5.64 c -2.38,-4 -9.08,-4.14 -13.37,-0.06 5.09,0.3 7.72,7.22 14.09,3.86 0.6,1.75 1.44,3.28 1.6,4.88 0.3,3 0,6.18 0.34,9.22 0.7,5.46 1.73,10.88 2.61,16.23 -1.59,-1 -3.38,-1.91 -5,-3.09 a 4.16,4.16 0 0 1 -1.68,-2.33 c -0.84,-5.08 -3.81,-8.46 -8.24,-10.68 -6.91,-3.45 -14,-4.06 -21.3,-1.18 -6.55,2.58 -11.95,6.87 -17.1,11.53 a 25.35,25.35 0 0 0 -1.72,2.16 c 8.26,-2.35 14.73,0.22 21,4 a 36.62,36.62 0 0 0 8.75,3.77 17.81,17.81 0 0 0 10.18,0.2 c -0.66,-1.59 -3.71,-8.06 -11.84,-14.61 0,0 10.67,4.63 14.25,13.55 a 14.89,14.89 0 0 0 5.15,-5.15 c 10.7,5.6 15.2,16 20.75,25.59 a 20,20 0 0 0 -6.69,-3 6.4,6.4 0 0 1 -1,-5.18 4.22,4.22 0 0 0 -1.25,4.81 v 0 a 18.42,18.42 0 0 0 -5.26,0.25 19,19 0 0 0 4.25,1 c 7.34,1.15 11.54,5.14 12.63,12.34 a 24.79,24.79 0 0 1 -3.65,17.42 4.91,4.91 0 0 1 -3.6,1.78 c -9,0.14 -18.09,-0.06 -27.14,0.13 -3,0.06 -3.5,-1 -3.46,-3.67 0.16,-9.36 0,-18.73 0.08,-28.1 0,-2.26 -0.71,-3.4 -3.31,-2.76 -0.09,0.91 -0.23,1.74 -0.23,2.57 0,10.43 0.09,20.86 0,31.29 -0.05,3.1 0.78,4.23 4.1,4.21 q 36.39,-0.24 72.8,-0.09 c 2.57,0 3.26,-0.81 3.23,-3.29 -0.13,-10.33 -0.08,-20.65 -0.12,-31 a 17.14,17.14 0 0 0 -0.24,-2.13 c -2.43,-0.35 -3.13,0.65 -3.11,2.85 0.08,8.84 0,17.67 0,26.51 0,1.12 -0.1,2.25 -0.16,3.47 h -33 a 12.21,12.21 0 0 1 0.43,-1.7 c 4.08,-9.5 3.54,-18.91 -0.81,-28.12 a 31.21,31.21 0 0 1 -2.48,-17.44 12,12 0 0 1 5.17,-9 c 0.31,0.69 0.63,1.33 1,1.94 a 18.11,18.11 0 0 1 18.2,-3.43 c 0,0 -13.32,-0.83 -17.4,4.91 z"
 id="path961"
 style="fill:#97c83e" />
</g>
<g
 transform="translate(-62.098365,-51.305101)"
 id="g998">
<path
 class="cls-2"
 d="m 81.51,220.35 a 18.12,18.12 0 0 1 0,36.23 h -9 v 15 h -2.69 v -51.23 z m -9,33.49 h 9 a 15.38,15.38 0 0 0 0,-30.75 h -9 z"
 id="path963"
 style="fill:#333333;stroke:#333333;stroke-miterlimit:10" />
<path
 class="cls-2"
 d="m 105,220.35 h 2.73 v 51.26 H 105 Z"
 id="path965"
 style="fill:#333333;stroke:#333333;stroke-miterlimit:10" />
<path
 class="cls-2"
 d="m 136.05,266.49 a 12.49,12.49 0 0 1 -10.12,5.12 c -7.11,0 -12.78,-6 -12.78,-13.46 0,-7.46 5.67,-13.53 12.78,-13.53 a 12.55,12.55 0 0 1 10.12,5.19 V 246 h 2.73 v 25.63 h -2.73 z m -10.12,2.39 c 6.7,0 10.12,-5.13 10.12,-10.39 0,-5.54 -3.63,-11.14 -10.12,-11.14 -5.6,0 -10.05,4.85 -10.05,10.8 0,5.95 4.45,10.73 10.05,10.73 z"
 id="path967"
 style="fill:#333333;stroke:#333333;stroke-miterlimit:10" />
<path
 class="cls-2"
 d="m 167.08,258.15 c 0,-5.95 -4.45,-10.8 -10.12,-10.8 -5.47,0 -9.84,4.65 -10.05,10.39 v 13.87 h -2.73 V 246 h 2.73 v 3.76 A 12.75,12.75 0 0 1 157,244.62 c 7,0 12.85,6.08 12.85,13.53 v 13.46 h -2.73 z"
 id="path969"
 style="fill:#333333;stroke:#333333;stroke-miterlimit:10" />
<path
 class="cls-2"
 d="m 173.77,244.62 h 2.74 v -24.27 h 2.73 v 24.27 h 5.47 v 2.73 h -5.47 v 17.36 a 4.06,4.06 0 0 0 4.17,4.17 3.81,3.81 0 0 0 3.08,-1.3 l 1.84,2.05 a 7,7 0 0 1 -11.82,-4.92 v -17.36 h -2.74 z"
 id="path971"
 style="fill:#333333;stroke:#333333;stroke-miterlimit:10" />
<path
 class="cls-2"
 d="m 212.73,267.72 a 12.62,12.62 0 0 1 -9,3.89 c -7.11,0 -12.78,-6 -12.78,-13.46 0,-7.46 5.67,-13.53 12.78,-13.53 7.11,0 12.85,6.08 12.85,13.53 h -22.9 c 0,5.94 4.45,10.73 10.05,10.73 a 9.75,9.75 0 0 0 7.11,-3.08 z m -18.79,-12.31 h 19.54 a 10,10 0 0 0 -19.54,0 z"
 id="path973"
 style="fill:#333333;stroke:#333333;stroke-miterlimit:10" />
<path
 class="cls-2"
 d="m 224.69,257.74 v 13.87 H 222 v -27 h 2.73 v 5.12 a 12.68,12.68 0 0 1 4.92,-4 12.24,12.24 0 0 1 5.13,-1.16 v 2.73 a 11.89,11.89 0 0 0 -3.08,0.55 10.59,10.59 0 0 0 -7.01,9.89 z"
 id="path975"
 style="fill:#333333;stroke:#333333;stroke-miterlimit:10" />
<path
 class="cls-2"
 d="m 259.07,267.72 a 12.62,12.62 0 0 1 -9,3.89 c -7.11,0 -12.78,-6 -12.78,-13.46 0,-7.46 5.67,-13.53 12.78,-13.53 7.11,0 12.85,6.08 12.85,13.53 H 240 c 0,5.94 4.45,10.73 10.05,10.73 a 9.75,9.75 0 0 0 7.11,-3.08 z m -18.79,-12.31 h 19.54 a 10,10 0 0 0 -19.54,0 z"
 id="path977"
 style="fill:#333333;stroke:#333333;stroke-miterlimit:10" />
<path
 class="cls-2"
 d="m 280.67,248.58 a 2.66,2.66 0 0 0 -2.6,-1.78 2.84,2.84 0 0 0 -3,2.87 2.92,2.92 0 0 0 1.36,2.6 l 4.38,2.26 a 9.27,9.27 0 0 1 -4.38,17.47 9.11,9.11 0 0 1 -8.13,-5 l 2.05,-2 a 6.54,6.54 0 0 0 6.15,4.1 6.34,6.34 0 0 0 6.42,-6.49 6.58,6.58 0 0 0 -3.41,-5.67 l -4.31,-2.33 a 5.66,5.66 0 0 1 -2.87,-5 5.59,5.59 0 0 1 5.67,-5.6 5.72,5.72 0 0 1 4.86,2.8 z"
 id="path979"
 style="fill:#333333;stroke:#333333;stroke-miterlimit:10" />
<path
 class="cls-2"
 d="m 289.62,244.62 h 2.74 v -24.27 h 2.73 v 24.27 h 5.47 v 2.73 h -5.47 v 17.36 a 4.06,4.06 0 0 0 4.17,4.17 3.81,3.81 0 0 0 3.08,-1.3 l 1.84,2.05 a 7,7 0 0 1 -11.82,-4.92 v -17.36 h -2.74 z"
 id="path981"
 style="fill:#333333;stroke:#333333;stroke-miterlimit:10" />
</g>
</svg>
