<?xml version="1.0" encoding="UTF-8" standalone="no"?>
<svg
 xmlns:dc="http://purl.org/dc/elements/1.1/"
 xmlns:cc="http://creativecommons.org/ns#"
 xmlns:rdf="http://www.w3.org/1999/02/22-rdf-syntax-ns#"
 xmlns:svg="http://www.w3.org/2000/svg"
 xmlns="http://www.w3.org/2000/svg"
 width="32"
 height="32"
 viewBox="0 0 32 32"
 version="1.1"
 id="svg14">
<metadata
 id="metadata20">
<rdf:RDF>
<cc:Work
 rdf:about="">
<dc:format>image/svg+xml</dc:format>
<dc:type
 rdf:resource="http://purl.org/dc/dcmitype/StillImage" />
<dc:title></dc:title>
</cc:Work>
</rdf:RDF>
</metadata>
<defs
 id="defs18" />
<g
 id="g860"
 transform="matrix(1.2821348,0,0,1.2821348,-9.1502916,5.8910536)">
<path
 d="m 24.432,14.985 a 4.959,4.959 0 0 0 -2.455,-3.151 l -0.5,-0.278 0.139,-0.131 A 3.4,3.4 0 0 0 22.768,8.967 3.136,3.136 0 0 0 19.605,5.79 3.114,3.114 0 0 0 17.533,6.57 3.068,3.068 0 0 0 16.467,8.711 3.219,3.219 0 0 0 17.629,11.42 l 0.148,0.133 -0.31,0.163 c -0.086,0.046 -0.164,0.086 -0.241,0.129 a 4.975,4.975 0 0 0 -2.432,3.129 0.509,0.509 0 0 0 0.588,0.763 q 4.245,0 8.486,0 a 0.668,0.668 0 0 0 0.544,-0.171 0.686,0.686 0 0 0 0.02,-0.581 z M 17.313,8.942 a 2.3,2.3 0 0 1 2.3,-2.292 h 0.006 a 2.284,2.284 0 0 1 1.63,0.689 2.27,2.27 0 0 1 -1.656,3.872 H 19.585 A 2.277,2.277 0 0 1 17.313,8.942 Z m -1.507,5.907 0.042,-0.172 a 4,4 0 0 1 3.775,-2.563 3.947,3.947 0 0 1 3.75,2.561 l 0.045,0.174 z"
 id="path6"
 style="stroke:none" />
<path
 d="m 9.291,11.774 q 2.565,0 5.13,0 c 0.578,0 0.578,-0.328 0.578,-0.435 0,-0.184 -0.059,-0.428 -0.577,-0.429 H 9.631 v -0.141 a 4.862,4.862 0 0 1 3.535,-4.317 6.431,6.431 0 0 1 1.145,-0.12 c 0.208,-0.009 0.416,-0.018 0.622,-0.038 a 3.138,3.138 0 0 0 2.14,-1.2 3.051,3.051 0 0 0 0.642,-2.3 3.248,3.248 0 0 0 -1.3,-2.2 3.086,3.086 0 0 0 -1.814,-0.583 3.3,3.3 0 0 0 -0.583,0.053 3.131,3.131 0 0 0 -2.065,1.355 3.1,3.1 0 0 0 -0.461,2.4 3.347,3.347 0 0 0 0.95,1.686 l 0.106,0.106 -0.151,0.13 A 0.306,0.306 0 0 1 12.323,5.797 C 12.294,5.811 12.264,5.824 12.235,5.836 L 12.159,5.87 a 5.95,5.95 0 0 0 -3.452,5.311 0.618,0.618 0 0 0 0.1,0.465 0.657,0.657 0 0 0 0.484,0.128 z m 3,-8.643 a 2.278,2.278 0 0 1 0.7,-1.621 2.324,2.324 0 0 1 1.666,-0.639 2.23,2.23 0 0 1 1.571,0.7 2.334,2.334 0 0 1 0.643,1.677 2.255,2.255 0 0 1 -2.259,2.184 H 14.559 A 2.244,2.244 0 0 1 12.289,3.13 Z"
 id="path8"
 style="stroke:none" />
<path
 d="M 23.936,6.221 A 4.433,4.433 0 0 0 24.78,6.29 c 0.178,0 0.356,0.007 0.532,0.022 a 4.865,4.865 0 0 1 4.3,4.447 l 0.01,0.149 H 24.8 a 0.652,0.652 0 0 0 -0.47,0.139 0.4,0.4 0 0 0 -0.1,0.3 c 0,0.284 0.189,0.428 0.55,0.429 q 2.6,0 5.2,0 A 0.59,0.59 0 0 0 30.422,11.644 0.576,0.576 0 0 0 30.528,11.21 5.95,5.95 0 0 0 27.076,5.867 L 26.64,5.645 26.777,5.51 a 3.162,3.162 0 1 0 -5.261,-2.734 3.12,3.12 0 0 0 2.42,3.445 z M 24.592,0.87 a 2.3,2.3 0 0 1 1.618,3.977 2.121,2.121 0 0 1 -1.412,0.59 c -0.05,0 -0.1,0 -0.151,-0.007 a 2.25,2.25 0 0 1 -2.286,-2.2 2.3,2.3 0 0 1 2.231,-2.356 z"
 id="path10"
 style="stroke:none" />
</g>
</svg>
