<?xml version="1.0" encoding="UTF-8" standalone="no"?>
<svg
 xmlns:dc="http://purl.org/dc/elements/1.1/"
 xmlns:cc="http://creativecommons.org/ns#"
 xmlns:rdf="http://www.w3.org/1999/02/22-rdf-syntax-ns#"
 xmlns:svg="http://www.w3.org/2000/svg"
 xmlns="http://www.w3.org/2000/svg"
 width="32"
 height="32"
 viewBox="0 0 32 32"
 version="1.1"
 id="svg16">
<metadata
 id="metadata22">
<rdf:RDF>
<cc:Work
 rdf:about="">
<dc:format>image/svg+xml</dc:format>
<dc:type
 rdf:resource="http://purl.org/dc/dcmitype/StillImage" />
<dc:title></dc:title>
</cc:Work>
</rdf:RDF>
</metadata>
<defs
 id="defs20" />
<g
 id="g838"
 transform="matrix(0.99269659,0,0,0.99269659,-8.947458,1.9371587)">
<path
 d="m 11.328,21.946 c 0.189,-0.176 0.381,-0.349 0.566,-0.529 q 2.5,-2.433 4.992,-4.868 a 5.314,5.314 0 0 1 2.669,-1.348 5.623,5.623 0 0 1 3.485,0.381 5.661,5.661 0 0 0 2.259,0.458 c 0.939,0.006 1.879,0.032 2.816,0.083 a 1.974,1.974 0 0 1 1.906,1.55 1.744,1.744 0 0 1 -0.681,1.8 1.981,1.981 0 0 1 -1.288,0.483 c -0.843,0 -1.685,0.027 -2.528,0.037 -0.442,0.006 -0.884,0 -1.326,0 l -0.01,0.042 c 0.305,0.305 0.608,0.611 0.917,0.913 a 0.216,0.216 0 0 0 0.139,0.041 q 1.875,0 3.751,0 a 0.417,0.417 0 0 0 0.216,-0.091 q 3.12,-2.258 6.239,-4.518 a 3.433,3.433 0 0 1 1.066,-0.617 2.87,2.87 0 0 1 1.543,-0.045 1.078,1.078 0 0 1 0.875,0.8 v 0.276 a 0.906,0.906 0 0 1 -0.267,0.466 c -0.823,0.742 -1.634,1.5 -2.461,2.235 -1.7,1.511 -3.393,3.023 -5.107,4.515 a 3.5,3.5 0 0 1 -2.142,0.881 c -0.636,0.036 -1.275,0.041 -1.913,0.042 q -3.842,0.006 -7.682,0 a 0.216,0.216 0 0 0 -0.221,0.092 c -0.522,0.8 -1.053,1.592 -1.582,2.386 -0.1,0.155 -0.209,0.309 -0.324,0.477 l -5.907,-5.912 z"
 stroke-miterlimit="10"
 id="path8"
 style="fill:none;stroke-width:0.6;stroke-miterlimit:10;stroke-dasharray:none;stroke-opacity:1;" />
<path
 d="m 34.971,10.183 c -0.149,0.218 -0.286,0.419 -0.425,0.619 -0.382,0.549 -0.745,1.112 -1.152,1.641 a 2.318,2.318 0 0 1 -1.427,0.944 2.826,2.826 0 0 1 -1.8,-0.168 6.026,6.026 0 0 1 -0.625,-0.413 c -0.213,-0.144 -0.268,-0.142 -0.446,0.043 a 6.361,6.361 0 0 0 -1,1.478 1.042,1.042 0 0 1 -0.623,0.552 0.964,0.964 0 0 1 -1.232,-0.979 c 0.006,-0.684 0.034,-1.368 0.08,-2.051 0.071,-1.039 0.134,-2.08 0.256,-3.113 a 19.87,19.87 0 0 1 0.965,-4.3 7.513,7.513 0 0 1 0.964,-1.768 C 28.535,2.627 28.564,2.586 28.615,2.512 A 4.123,4.123 0 0 0 26.082,5.997 3.167,3.167 0 0 1 26.021,6.36 0.482,0.482 0 0 1 25.654,6.733 C 25.478,6.778 25.362,6.663 25.27,6.533 A 3.331,3.331 0 0 1 24.626,4.422 3.251,3.251 0 0 1 26.791,1.37 6.96,6.96 0 0 1 28.657,0.909 c 0.691,-0.1 1.386,-0.175 2.075,-0.285 a 4.977,4.977 0 0 0 0.721,-0.227 c 0.057,0.393 0.121,0.8 0.176,1.208 a 9.787,9.787 0 0 1 0,2.37 4.882,4.882 0 0 1 -0.907,2.33 4,4 0 0 1 -1.815,1.481 2.625,2.625 0 0 1 -0.458,0.114 c -0.237,0.045 -0.282,0.082 -0.31,0.321 -0.052,0.457 -0.11,0.913 -0.148,1.371 -0.063,0.779 -0.114,1.558 -0.167,2.337 -0.008,0.11 0,0.22 0,0.38 a 6.51,6.51 0 0 1 1.963,-1.511 6.13,6.13 0 0 1 2.329,-0.61 L 32.11,10.119 c -0.277,-0.018 -0.553,-0.05 -0.83,-0.052 a 7.466,7.466 0 0 0 -1.883,0.209 1.709,1.709 0 0 1 -0.258,0.03 c -0.207,0.015 -0.3,-0.1 -0.254,-0.3 a 1.906,1.906 0 0 1 0.4,-0.814 2.644,2.644 0 0 1 3.166,-0.7 6.975,6.975 0 0 1 1.385,0.9 c 0.347,0.268 0.713,0.512 1.07,0.766 0.021,0.001 0.039,0.009 0.065,0.025 z"
 stroke-miterlimit="10"
 id="path10"
 style="fill:none;stroke-width:0.6;stroke-miterlimit:10;stroke-dasharray:none;stroke-opacity:1;" />
<path
 d="m 21.751,10.176 c 0.224,0.028 0.451,0.045 0.673,0.086 a 5.506,5.506 0 0 1 2.222,0.858 0.866,0.866 0 0 1 0.245,1.345 1.979,1.979 0 0 1 -0.412,0.449 2.56,2.56 0 0 1 -3.708,-0.528 c -0.376,-0.489 -0.718,-1 -1.071,-1.511 -0.128,-0.184 -0.248,-0.374 -0.369,-0.564 -0.043,-0.068 -0.065,-0.132 0.024,-0.2 0.59,-0.421 1.171,-0.854 1.767,-1.267 a 3.182,3.182 0 0 1 1.359,-0.566 2.529,2.529 0 0 1 2.879,1.715 0.325,0.325 0 0 1 -0.4,0.434 c -0.235,-0.065 -0.465,-0.151 -0.7,-0.207 a 7,7 0 0 0 -2.436,-0.1 0.526,0.526 0 0 0 -0.068,0.019 z"
 stroke-miterlimit="10"
 id="path12"
 style="fill:none;stroke-width:0.6;stroke-miterlimit:10;stroke-dasharray:none;stroke-opacity:1;" />
</g>
</svg>
