<?xml version="1.0" encoding="UTF-8" standalone="no"?>
<svg
 xmlns:dc="http://purl.org/dc/elements/1.1/"
 xmlns:cc="http://creativecommons.org/ns#"
 xmlns:rdf="http://www.w3.org/1999/02/22-rdf-syntax-ns#"
 xmlns:svg="http://www.w3.org/2000/svg"
 xmlns="http://www.w3.org/2000/svg"
 id="svg16"
 version="1.1"
 viewBox="0 0 32 32.000001"
 height="32"
 width="32">
<metadata
 id="metadata22">
<rdf:RDF>
<cc:Work
 rdf:about="">
<dc:format>image/svg+xml</dc:format>
<dc:type
 rdf:resource="http://purl.org/dc/dcmitype/StillImage" />
<dc:title></dc:title>
</cc:Work>
</rdf:RDF>
</metadata>
<defs
 id="defs20" />
<g
 transform="matrix(1.4309889,0,0,1.4309889,-17.098137,2.7039647)"
 id="g839">
<path
 style="fill-opacity:1;stroke:none"
 id="path6"
 d="M 25.148,18.589 C 24.724,18.508 24.292,18.455 23.877,18.342 A 10.29,10.29 0 0 1 20.503,16.637 22.789,22.789 0 0 1 14.877,10.809 9.007,9.007 0 0 1 13.424,7.327 4.783,4.783 0 0 1 13.491,5.299 1.88,1.88 0 0 1 14.354,4.151 c 0.417,-0.258 0.839,-0.509 1.261,-0.757 a 1.011,1.011 0 0 1 1.353,0.3 c 0.193,0.282 0.38,0.568 0.606,0.845 v -0.2 q 0,-1.712 0,-3.423 a 0.848,0.848 0 0 1 0.916,-0.919 h 13.5 c 0.48,0 0.706,0.179 0.923,0.723 v 10.329 a 0.882,0.882 0 0 1 -0.638,0.667 2.207,2.207 0 0 1 -0.453,0.028 h -12.5 c 0.134,0.138 0.233,0.242 0.334,0.343 a 11.236,11.236 0 0 0 2.893,2.264 c 0.225,0.114 0.3,0.1 0.457,-0.094 0.283,-0.362 0.561,-0.727 0.845,-1.087 a 1.013,1.013 0 0 1 1.371,-0.219 q 1.5,0.993 2.99,1.992 a 1.019,1.019 0 0 1 0.316,1.381 c -0.246,0.417 -0.491,0.834 -0.747,1.245 a 1.861,1.861 0 0 1 -1.184,0.871 c -0.252,0.059 -0.51,0.1 -0.764,0.145 z m 0.1,-17.937 h -6.73 c -0.251,0 -0.292,0.04 -0.292,0.285 0,1.492 0,2.984 0,4.475 a 0.587,0.587 0 0 0 0.089,0.3 c 0.21,0.334 0.437,0.658 0.653,0.988 A 1.018,1.018 0 0 1 18.74,8.083 c -0.356,0.279 -0.715,0.555 -1.071,0.834 -0.2,0.158 -0.231,0.245 -0.1,0.453 0.335,0.525 0.685,1.041 1.025,1.563 a 0.363,0.363 0 0 0 0.351,0.167 q 5.116,-0.006 10.231,0 c 0.944,0 1.887,-0.007 2.83,0 0.186,0 0.257,-0.076 0.245,-0.251 0,-0.038 0,-0.077 0,-0.115 V 0.962 c 0,-0.268 -0.037,-0.3 -0.313,-0.3 z m 0.23,17.292 0.537,-0.045 a 1.525,1.525 0 0 0 1.341,-0.868 c 0.181,-0.364 0.414,-0.7 0.622,-1.053 0.135,-0.229 0.112,-0.329 -0.109,-0.477 q -1.5,-1 -3.006,-2 c -0.233,-0.155 -0.322,-0.14 -0.5,0.083 -0.268,0.341 -0.532,0.684 -0.8,1.026 a 1.031,1.031 0 0 1 -1.39,0.288 11.143,11.143 0 0 1 -2.6,-1.965 12.683,12.683 0 0 1 -2.565,-3.211 1.04,1.04 0 0 1 0.276,-1.335 q 0.537,-0.416 1.072,-0.833 c 0.2,-0.158 0.22,-0.257 0.078,-0.47 Q 17.424,5.564 16.409,4.048 C 16.273,3.848 16.17,3.821 15.96,3.948 15.521,4.207 15.085,4.471 14.65,4.736 a 1.143,1.143 0 0 0 -0.526,0.7 4.292,4.292 0 0 0 -0.055,1.968 8.605,8.605 0 0 0 1.363,3.111 22.4,22.4 0 0 0 3.658,4.149 15.474,15.474 0 0 0 3.531,2.53 6.451,6.451 0 0 0 2.858,0.75 z" />
<path
 style="fill-opacity:1;stroke:none"
 id="path8"
 d="M 25.217,6.367 A 1.129,1.129 0 0 1 24.55,6.141 Q 21.873,4.106 19.192,2.074 c -0.24,-0.182 -0.241,-0.47 0,-0.59 a 0.357,0.357 0 0 1 0.4,0.073 q 1.62,1.233 3.243,2.46 l 2.04,1.548 c 0.325,0.246 0.41,0.245 0.74,-0.005 l 5.207,-3.95 c 0.262,-0.2 0.449,-0.211 0.584,-0.037 0.135,0.174 0.072,0.359 -0.184,0.553 q -2.625,1.993 -5.251,3.986 a 1.205,1.205 0 0 1 -0.754,0.255 z" />
<path
 style="fill-opacity:1;stroke:none"
 id="path10"
 d="m 27.791,6.038 a 1.4,1.4 0 0 1 0.269,0.173 q 1.656,1.764 3.3,3.535 a 0.331,0.331 0 0 1 0.01,0.479 0.324,0.324 0 0 1 -0.49,-0.04 Q 29.691,8.916 28.504,7.642 28.041,7.142 27.578,6.649 A 0.286,0.286 0 0 1 27.512,6.283 1.414,1.414 0 0 1 27.791,6.038 Z" />
<path
 style="fill-opacity:1;stroke:none"
 id="path12"
 d="m 23.066,6.388 a 1.714,1.714 0 0 1 -0.164,0.279 q -1.634,1.758 -3.274,3.511 A 0.329,0.329 0 1 1 19.151,9.734 q 1.637,-1.757 3.275,-3.511 a 0.3,0.3 0 0 1 0.39,-0.1 1.29,1.29 0 0 1 0.25,0.265 z" />
</g>
</svg>
