<?xml version="1.0" encoding="UTF-8" standalone="no"?>
<svg
 xmlns:dc="http://purl.org/dc/elements/1.1/"
 xmlns:cc="http://creativecommons.org/ns#"
 xmlns:rdf="http://www.w3.org/1999/02/22-rdf-syntax-ns#"
 xmlns:svg="http://www.w3.org/2000/svg"
 xmlns="http://www.w3.org/2000/svg"
 id="svg12"
 version="1.1"
 viewBox="0 0 32 32.000001"
 height="32"
 width="32">
<metadata
 id="metadata18">
<rdf:RDF>
<cc:Work
 rdf:about="">
<dc:format>image/svg+xml</dc:format>
<dc:type
 rdf:resource="http://purl.org/dc/dcmitype/StillImage" />
<dc:title></dc:title>
</cc:Work>
</rdf:RDF>
</metadata>
<defs
 id="defs16" />
<g
 transform="matrix(1.1974499,0,0,1.1974499,-7.2389695,1.6663726)"
 id="g832">
<path
 style="fill-opacity:1;stroke:none"
 id="path6"
 d="m 28.829,14.814 a 5.278,5.278 0 0 0 -1,0.743 c -0.662,0.589 -1.322,1.2 -1.959,1.8 l -0.255,0.237 a 0.567,0.567 0 0 1 -0.684,0.142 0.768,0.768 0 0 0 -0.239,-0.043 l -0.1,-0.008 -1.129,-0.12 c -0.723,-0.076 -1.47,-0.155 -2.2,-0.242 a 4.271,4.271 0 0 1 -2.125,-0.82 c -0.456,-0.343 -0.944,-0.7 -1.458,-1.025 l -0.245,-0.155 a 8.119,8.119 0 0 0 -1.446,-0.783 6.818,6.818 0 0 0 -4.7,-0.086 7.039,7.039 0 0 1 -2.161,0.462 1.337,1.337 0 0 0 -1.408,1.437 q 0,1.822 0,3.645 a 1.348,1.348 0 0 0 1.442,1.454 c 0.61,0.011 1.23,0.032 1.83,0.053 0.395,0.013 0.79,0.027 1.185,0.037 a 4.254,4.254 0 0 1 2.024,0.541 l 0.964,0.542 c 0.608,0.341 1.215,0.682 1.818,1.03 a 1.933,1.933 0 0 0 0.985,0.279 h 0.008 q 0.753,0 1.5,0 h 1.894 0.934 c 0.822,0 1.672,0.005 2.505,-0.011 a 2.1,2.1 0 0 0 0.788,-0.191 2.4,2.4 0 0 0 1.069,-0.965 c 0.14,-0.229 0.309,-0.5 0.5,-0.745 q 0.977,-1.3 1.958,-2.593 0.825,-1.09 1.649,-2.183 a 1.715,1.715 0 0 0 0.218,-0.359 1.592,1.592 0 0 0 -0.41,-1.75 1.479,1.479 0 0 0 -1.752,-0.323 z m 1.086,1.9 q -0.76,1.017 -1.521,2.037 -1.22,1.631 -2.439,3.261 a 4.524,4.524 0 0 1 -0.607,0.7 1,1 0 0 1 -0.617,0.206 c -0.571,0.007 -1.149,0.009 -1.72,0.009 h -2.474 c -0.824,0 -1.677,0 -2.517,-0.007 A 1.2,1.2 0 0 1 17.468,22.767 C 16.495,22.23 15.554,21.695 14.761,21.243 A 5.506,5.506 0 0 0 12.12,20.533 Q 11.385,20.512 10.65,20.488 C 10.173,20.473 9.696,20.457 9.218,20.444 8.835,20.433 8.724,20.367 8.724,19.955 v -1.016 q 0,-1.27 0,-2.539 a 0.493,0.493 0 0 1 0.116,-0.365 0.486,0.486 0 0 1 0.352,-0.12 7.484,7.484 0 0 0 2.418,-0.507 5.862,5.862 0 0 1 4.071,0.088 6.681,6.681 0 0 1 1.246,0.687 l 0.156,0.1 c 0.514,0.33 1,0.685 1.445,1.019 a 5.249,5.249 0 0 0 2.515,1 c 1.074,0.137 2.142,0.247 3.325,0.367 0.192,0.02 0.776,0.08 0.758,0.635 -0.012,0.368 -0.271,0.568 -0.769,0.594 l -0.828,0.043 c -1.3,0.067 -2.654,0.137 -3.98,0.215 A 1.494,1.494 0 0 1 18.64,19.95 c -0.366,-0.229 -0.728,-0.465 -1.091,-0.7 L 17.126,18.975 16.68,18.684 c -0.34,-0.223 -0.692,-0.453 -1.043,-0.668 a 0.441,0.441 0 0 0 -0.529,0.042 0.413,0.413 0 0 0 -0.189,0.444 0.754,0.754 0 0 0 0.248,0.382 c 0.576,0.409 1.221,0.84 2.029,1.359 0.407,0.26 0.82,0.5 1.229,0.713 a 2.109,2.109 0 0 0 1.124,0.2 c 1.042,-0.062 2.1,-0.117 3.127,-0.169 l 1.593,-0.082 0.1,-0.005 a 3.111,3.111 0 0 0 0.5,-0.05 1.591,1.591 0 0 0 1.203,-1.958 0.479,0.479 0 0 1 0.17,-0.526 c 0.479,-0.435 0.955,-0.874 1.431,-1.312 q 0.435,-0.4 0.871,-0.8 L 28.57,16.23 a 4.721,4.721 0 0 1 0.511,-0.425 0.594,0.594 0 0 1 0.851,0.11 0.571,0.571 0 0 1 -0.017,0.798 z" />
<path
 style="fill-opacity:1;stroke:none"
 id="path8"
 d="M 30.307,2.53 A 4.547,4.547 0 0 0 25.665,0.043 4.619,4.619 0 0 0 23.258,1.287 C 22.992,1.522 22.729,1.761 22.466,2 L 22.217,2.226 21.964,2.476 21.837,2.341 C 21.804,2.307 21.771,2.272 21.737,2.236 A 8.12,8.12 0 0 0 19.862,0.587 3.624,3.624 0 0 0 18.026,0.006 h -0.062 a 4.646,4.646 0 0 0 -4.14,6.881 12.693,12.693 0 0 0 1.662,2.4 32.866,32.866 0 0 0 6.231,5.419 0.529,0.529 0 0 0 0.68,-0.034 37.835,37.835 0 0 0 3.818,-3 18.631,18.631 0 0 0 3.937,-4.628 4.58,4.58 0 0 0 0.155,-4.514 z m -1.012,3.995 a 16.224,16.224 0 0 1 -3.72,4.36 c -0.729,0.632 -1.5,1.235 -2.246,1.819 -0.342,0.268 -0.683,0.535 -1.021,0.8 A 0.377,0.377 0 0 1 21.808,13.54 30.588,30.588 0 0 1 16.164,8.501 18.013,18.013 0 0 1 14.858,6.624 L 14.723,6.411 a 3.222,3.222 0 0 1 -0.468,-1.779 3.621,3.621 0 0 1 3.554,-3.63 2.925,2.925 0 0 1 1.671,0.517 7.365,7.365 0 0 1 1.484,1.346 c 0.052,0.058 0.1,0.116 0.153,0.175 0.156,0.179 0.317,0.365 0.488,0.528 a 0.568,0.568 0 0 0 0.863,0 C 22.547,3.494 22.62,3.413 22.694,3.329 v 0 l 0.026,-0.03 0.011,-0.012 v 0 l 0.037,-0.043 v 0 c -0.037,0.042 0.012,-0.014 0.018,-0.021 0.1,-0.116 0.2,-0.237 0.32,-0.348 L 23.4,2.585 a 10.983,10.983 0 0 1 1.054,-0.962 2.956,2.956 0 0 1 2.382,-0.578 3.651,3.651 0 0 1 2.383,1.594 3.582,3.582 0 0 1 0.076,3.886 z" />
</g>
</svg>
