<?xml version="1.0" encoding="UTF-8" standalone="no"?>
<svg
 xmlns:dc="http://purl.org/dc/elements/1.1/"
 xmlns:cc="http://creativecommons.org/ns#"
 xmlns:rdf="http://www.w3.org/1999/02/22-rdf-syntax-ns#"
 xmlns:svg="http://www.w3.org/2000/svg"
 xmlns="http://www.w3.org/2000/svg"
 id="svg18"
 version="1.1"
 viewBox="0 0 31.999999 31.999999"
 height="32"
 width="32">
<metadata
 id="metadata24">
<rdf:RDF>
<cc:Work
 rdf:about="">
<dc:format>image/svg+xml</dc:format>
<dc:type
 rdf:resource="http://purl.org/dc/dcmitype/StillImage" />
<dc:title></dc:title>
</cc:Work>
</rdf:RDF>
</metadata>
<defs
 id="defs22" />
<g
 transform="matrix(1.2171334,0,0,1.2171334,1.9972495,2.4707585)"
 id="g844">
<path
 style="fill-opacity:1;stroke:none"
 id="path6"
 d="m 21.628,6.67 a 1.4,1.4 0 0 0 -1.424,1.275 c -0.047,0.509 -0.089,1.017 -0.131,1.526 -0.022,0.272 -0.044,0.543 -0.067,0.815 q -0.047,0.534 -0.094,1.069 l -0.051,0.583 -0.135,0.011 a 0.62,0.62 0 0 1 -0.1,0.005 1.5,1.5 0 0 0 -1.237,0.517 c -0.156,0.163 -0.317,0.321 -0.479,0.479 -0.222,0.217 -0.452,0.441 -0.66,0.675 a 1.751,1.751 0 0 1 -1.162,0.594 4.484,4.484 0 0 0 -3.765,3.946 c -0.058,0.863 -0.053,1.747 -0.048,2.6 0,0.372 0,0.745 0,1.117 a 0.366,0.366 0 0 0 0.032,0.15 0.273,0.273 0 0 0 0.305,0.173 0.267,0.267 0 0 0 0.25,-0.243 1.085,1.085 0 0 0 0.007,-0.183 v -0.052 c 0,-0.334 0,-0.667 0,-1 0,-0.667 0,-1.334 0,-2 a 3.957,3.957 0 0 1 3.846,-3.972 0.609,0.609 0 0 0 0.442,-0.192 c 0.575,-0.586 1.148,-1.155 1.733,-1.736 a 0.843,0.843 0 0 1 1.454,0.423 0.894,0.894 0 0 1 -0.284,0.761 q -0.846,0.852 -1.7,1.7 l -1.131,1.132 c -0.269,0.269 -0.118,0.428 -0.068,0.48 a 0.27,0.27 0 0 0 0.192,0.093 v 0 a 0.447,0.447 0 0 0 0.3,-0.156 l 0.508,-0.507 q 1.172,-1.167 2.339,-2.341 a 1.428,1.428 0 0 0 0.082,-1.978 0.553,0.553 0 0 1 -0.119,-0.352 c 0.018,-0.352 0.048,-0.708 0.077,-1.052 l 0.034,-0.41 q 0.1,-1.251 0.208,-2.5 a 1.267,1.267 0 0 1 0.075,-0.343 0.807,0.807 0 0 1 0.739,-0.5 0.772,0.772 0 0 1 0.135,0.013 0.807,0.807 0 0 1 0.681,0.84 q 0,1.03 0,2.059 0,1.8 0,3.593 a 2.449,2.449 0 0 1 -0.758,1.839 q -0.795,0.786 -1.582,1.578 -0.519,0.519 -1.037,1.037 a 2.575,2.575 0 0 0 -0.839,1.616 c -0.052,0.611 -0.044,1.24 -0.037,1.848 v 0.29 a 0.347,0.347 0 0 0 0.162,0.2 0.243,0.243 0 0 0 0.249,0.008 0.384,0.384 0 0 0 0.167,-0.332 c 0.01,-0.562 0.01,-0.993 0,-1.4 a 2.417,2.417 0 0 1 0.768,-1.861 c 0.747,-0.737 1.5,-1.494 2.229,-2.225 l 0.406,-0.408 a 2.69,2.69 0 0 0 0.823,-1.654 c 0.04,-0.4 0.04,-0.809 0.04,-1.207 V 12.93 c 0.005,-1.8 0.006,-3.32 0,-4.851 A 1.41,1.41 0 0 0 21.628,6.67 Z" />
<path
 style="fill-opacity:1;stroke:none"
 id="path8"
 d="M 6.523,14.155 A 0.647,0.647 0 0 1 6.141,13.986 C 5.667,13.53 5.241,13.117 4.828,12.674 a 1.68,1.68 0 0 0 -1.57,-0.7 L 3.158,11.99 3.1,11.317 C 3.052,10.767 3.006,10.235 2.961,9.702 Q 2.936,9.402 2.911,9.096 C 2.88,8.717 2.849,8.338 2.811,7.96 A 1.407,1.407 0 0 0 0.003,8.09 c 0,1.137 0,2.274 0,3.411 q 0,1.158 0,2.317 a 2.953,2.953 0 0 0 0.911,2.2 q 0.8,0.793 1.594,1.591 l 1.043,1.044 A 2.338,2.338 0 0 1 4.27,20.38 c 0,0.542 0,1.024 0,1.474 0,0.225 0.112,0.361 0.294,0.365 a 0.247,0.247 0 0 0 0.2,-0.069 0.418,0.418 0 0 0 0.1,-0.3 c 0,-0.187 0,-0.375 0,-0.562 0,-0.28 0,-0.56 0,-0.839 A 2.952,2.952 0 0 0 3.927,18.19 C 3.393,17.663 2.863,17.131 2.333,16.6 Q 1.833,16.1 1.325,15.592 A 2.185,2.185 0 0 1 0.609,14.042 C 0.595,12.371 0.598,10.672 0.601,9.028 V 8.089 A 0.816,0.816 0 0 1 1.853,7.408 0.865,0.865 0 0 1 2.22,8.069 c 0.109,1.183 0.212,2.442 0.325,3.964 A 0.684,0.684 0 0 1 2.4,12.474 1.432,1.432 0 0 0 2.46,14.362 c 0.794,0.811 1.613,1.625 2.4,2.413 l 0.527,0.524 A 0.29,0.29 0 0 0 5.83,17.335 C 5.965,17.209 5.954,17.035 5.803,16.873 5.773,16.841 5.742,16.811 5.711,16.78 L 4.978,16.047 q -1,-1 -2,-2 a 0.87,0.87 0 0 1 -0.3,-0.771 0.8,0.8 0 0 1 0.567,-0.677 0.876,0.876 0 0 1 0.272,-0.045 0.842,0.842 0 0 1 0.6,0.273 l 0.606,0.6 c 0.377,0.376 0.753,0.751 1.125,1.131 a 0.631,0.631 0 0 0 0.464,0.2 3.79,3.79 0 0 1 0.735,0.092 3.945,3.945 0 0 1 3.092,3.872 c 0.005,0.633 0,1.266 0,1.9 0,0.409 0,0.818 0,1.227 0,0.108 0.028,0.36 0.284,0.368 a 0.279,0.279 0 0 0 0.21,-0.079 0.362,0.362 0 0 0 0.1,-0.265 c 0,-0.333 0,-0.666 0,-1 0.005,-0.853 0.011,-1.734 -0.04,-2.6 a 4.552,4.552 0 0 0 -4.17,-4.118 z" />
<path
 style="fill-opacity:1;stroke:none"
 id="path10"
 d="m 14.842,10.374 a 3.432,3.432 0 0 0 -1.7,-2.182 L 12.794,8 l 0.1,-0.091 a 2.35,2.35 0 0 0 0.8,-1.7 2.17,2.17 0 0 0 -2.189,-2.2 2.155,2.155 0 0 0 -1.435,0.54 2.119,2.119 0 0 0 -0.738,1.482 2.228,2.228 0 0 0 0.8,1.876 l 0.1,0.092 -0.215,0.113 C 9.958,8.143 9.904,8.171 9.851,8.201 a 3.441,3.441 0 0 0 -1.684,2.166 0.353,0.353 0 0 0 0.407,0.529 h 5.875 a 0.465,0.465 0 0 0 0.377,-0.118 0.474,0.474 0 0 0 0.016,-0.404 z M 9.913,6.19 a 1.594,1.594 0 0 1 1.592,-1.587 v 0 A 1.588,1.588 0 0 1 12.634,5.08 1.572,1.572 0 0 1 11.487,7.761 H 11.482 A 1.577,1.577 0 0 1 9.915,6.19 Z M 8.87,10.28 8.899,10.161 a 2.768,2.768 0 0 1 2.614,-1.775 2.733,2.733 0 0 1 2.6,1.773 l 0.031,0.121 z" />
<path
 style="fill-opacity:1;stroke:none"
 id="path12"
 d="m 4.36,8.155 q 1.775,0 3.551,0 c 0.4,0 0.4,-0.227 0.4,-0.3 0,-0.128 -0.041,-0.3 -0.4,-0.3 H 4.595 v -0.1 A 3.365,3.365 0 0 1 7.042,4.466 4.522,4.522 0 0 1 7.835,4.383 C 7.979,4.377 8.123,4.371 8.266,4.357 A 2.174,2.174 0 0 0 9.747,3.523 2.117,2.117 0 0 0 10.192,1.931 2.255,2.255 0 0 0 9.292,0.408 2.139,2.139 0 0 0 8.036,0.008 2.215,2.215 0 0 0 7.636,0.045 2.167,2.167 0 0 0 6.207,0.983 2.14,2.14 0 0 0 5.888,2.643 2.311,2.311 0 0 0 6.545,3.81 l 0.074,0.074 -0.1,0.09 A 0.179,0.179 0 0 1 6.468,4.012 L 6.407,4.04 A 0.505,0.505 0 0 0 6.354,4.064 4.117,4.117 0 0 0 3.965,7.74 0.43,0.43 0 0 0 4.036,8.062 0.455,0.455 0 0 0 4.36,8.155 Z M 6.435,2.171 A 1.576,1.576 0 0 1 6.919,1.049 1.611,1.611 0 0 1 8.073,0.606 1.547,1.547 0 0 1 9.16,1.09 1.613,1.613 0 0 1 9.605,2.252 1.561,1.561 0 0 1 8.041,3.755 H 8.004 A 1.553,1.553 0 0 1 6.435,2.166 Z" />
<path
 style="fill-opacity:1;stroke:none"
 id="path14"
 d="m 14.498,4.306 a 3.08,3.08 0 0 0 0.585,0.048 c 0.123,0 0.247,0.005 0.369,0.015 a 3.368,3.368 0 0 1 2.975,3.079 l 0.008,0.1 h -3.339 a 0.449,0.449 0 0 0 -0.325,0.1 0.274,0.274 0 0 0 -0.069,0.205 c 0,0.2 0.131,0.3 0.381,0.3 q 1.8,0 3.6,0 a 0.413,0.413 0 0 0 0.3,-0.092 0.4,0.4 0 0 0 0.074,-0.3 4.119,4.119 0 0 0 -2.39,-3.7 l -0.3,-0.153 0.1,-0.094 a 2.189,2.189 0 1 0 -3.642,-1.893 2.159,2.159 0 0 0 1.673,2.385 z m 0.455,-3.7 a 1.583,1.583 0 0 1 1.625,1.55 1.564,1.564 0 0 1 -0.5,1.2 1.469,1.469 0 0 1 -0.977,0.408 c -0.035,0 -0.07,0 -0.1,0 A 1.559,1.559 0 0 1 13.418,2.239 1.591,1.591 0 0 1 14.953,0.602 Z" />
</g>
</svg>
