<?xml version="1.0" encoding="UTF-8" standalone="no"?>
<svg
 xmlns:dc="http://purl.org/dc/elements/1.1/"
 xmlns:cc="http://creativecommons.org/ns#"
 xmlns:rdf="http://www.w3.org/1999/02/22-rdf-syntax-ns#"
 xmlns:svg="http://www.w3.org/2000/svg"
 xmlns="http://www.w3.org/2000/svg"
 id="svg8"
 version="1.1"
 viewBox="0 0 16.000001 16"
 height="16"
 width="16">
<metadata
 id="metadata14">
<rdf:RDF>
<cc:Work
 rdf:about="">
<dc:format>image/svg+xml</dc:format>
<dc:type
 rdf:resource="http://purl.org/dc/dcmitype/StillImage" />
<dc:title></dc:title>
</cc:Work>
</rdf:RDF>
</metadata>
<defs
 id="defs12" />
<g
 id="g6"
 transform="matrix(1.2571935,0,0,1.2571935,-76.685725,-398.2775)">
<path
 style="fill:#96c73d"
 id="path2"
 d="m 71.375,321.742 c -0.167,0 -0.335,0 -0.519,0 h -0.5 v -0.2 c 0,-0.226 0,-0.447 0.006,-0.665 0.006,-0.475 0.013,-0.924 -0.012,-1.375 a 2.994,2.994 0 0 0 -2.7,-2.691 3.021,3.021 0 0 0 -3.291,3.051 c 0.006,0.373 0,0.746 0,1.129 v 0.756 h -0.72 -0.264 a 0.7,0.7 0 0 0 -0.776,0.765 q -0.008,3.14 0,6.279 a 0.685,0.685 0 0 0 0.744,0.729 h 8.042 a 0.656,0.656 0 0 0 0.735,-0.745 v -6.281 a 0.666,0.666 0 0 0 -0.745,-0.752 z m -6.845,-0.227 c 0.01,-0.233 0.013,-0.466 0.015,-0.7 a 10.919,10.919 0 0 1 0.093,-1.561 2.742,2.742 0 0 1 2.786,-2.248 h 0.017 a 2.771,2.771 0 0 1 2.677,2.3 9.2,9.2 0 0 1 0.034,1.52 c -0.007,0.229 -0.015,0.459 -0.015,0.692 v 0.2 h -5.615 z m 7.389,7.153 c 0,0.482 -0.16,0.646 -0.632,0.646 h -3.908 -3.908 c -0.5,0 -0.631,-0.137 -0.631,-0.635 v -6.11 c 0,-0.471 0.144,-0.614 0.617,-0.614 h 7.816 c 0.476,0 0.645,0.165 0.646,0.63 z" />
<path
 style="fill:#96c73d"
 id="path4"
 d="m 66.451,325.052 a 0.976,0.976 0 0 1 0.606,-0.837 0.916,0.916 0 0 1 0.984,0.236 0.93,0.93 0 0 1 0.114,1.027 2.337,2.337 0 0 0 -0.16,0.605 c -0.033,0.194 -0.013,0.4 -0.055,0.589 a 0.574,0.574 0 0 1 -0.643,0.432 0.612,0.612 0 0 1 -0.527,-0.547 c -0.01,-0.122 0,-0.246 0,-0.369 a 0.964,0.964 0 0 0 -0.175,-0.717 1.22,1.22 0 0 1 -0.144,-0.419 z" />
</g>
</svg>
