<?xml version="1.0" encoding="UTF-8" standalone="no"?>
<svg
 xmlns:dc="http://purl.org/dc/elements/1.1/"
 xmlns:cc="http://creativecommons.org/ns#"
 xmlns:rdf="http://www.w3.org/1999/02/22-rdf-syntax-ns#"
 xmlns:svg="http://www.w3.org/2000/svg"
 xmlns="http://www.w3.org/2000/svg"
 id="svg8"
 version="1.1"
 viewBox="0 0 16 16"
 height="16"
 width="16">
<metadata
 id="metadata14">
<rdf:RDF>
<cc:Work
 rdf:about="">
<dc:format>image/svg+xml</dc:format>
<dc:type
 rdf:resource="http://purl.org/dc/dcmitype/StillImage" />
<dc:title></dc:title>
</cc:Work>
</rdf:RDF>
</metadata>
<defs
 id="defs12" />
<g
 id="g6"
 transform="matrix(1.1478585,0,0,1.1478585,-69.309992,-301.68132)">
<path
 style="fill:none;stroke:#96c73d;stroke-width:0.25;stroke-miterlimit:10"
 id="path2"
 stroke-miterlimit="10"
 d="m 60.507,274.733 c 0.029,-0.136 0.048,-0.275 0.09,-0.407 a 2.336,2.336 0 0 1 0.674,-1 5.587,5.587 0 0 1 1.668,-1.02 11.731,11.731 0 0 1 2.551,-0.729 10.456,10.456 0 0 1 2.01,-0.177 11.041,11.041 0 0 1 1.875,0.21 12.14,12.14 0 0 1 2.147,0.61 6.49,6.49 0 0 1 1.7,0.94 2.712,2.712 0 0 1 0.806,0.975 1.73,1.73 0 0 1 0.156,0.561 0.194,0.194 0 0 0 0.012,0.039 v 1.9 H 60.507 Z" />
<path
 style="fill:none;stroke:#96c73d;stroke-width:0.25;stroke-miterlimit:10"
 id="path4"
 stroke-miterlimit="10"
 d="m 67.531,263.868 c 0.131,0.019 0.263,0.03 0.392,0.056 a 2.936,2.936 0 0 1 2.208,1.712 2.987,2.987 0 0 1 -0.388,3.252 2.892,2.892 0 0 1 -1.883,1.1 2.99,2.99 0 0 1 -2.427,-0.633 2.954,2.954 0 0 1 -1.113,-1.867 3,3 0 0 1 0.638,-2.479 2.963,2.963 0 0 1 1.825,-1.081 c 0.127,-0.024 0.256,-0.037 0.385,-0.056 z" />
</g>
</svg>
